<svg width="64" height="64" viewBox="0 0 64 64" fill="none" xmlns="http://www.w3.org/2000/svg">
<path d="M2.44815 61.5518C5.71236 64.8161 11.0047 64.8161 14.2689 61.5518L61.5518 14.2689C64.816 11.0047 64.8161 5.71236 61.5518 2.44815C58.2876 -0.816052 52.9953 -0.816051 49.7311 2.44815L2.44816 49.7311C-0.816051 52.9953 -0.816052 58.2876 2.44815 61.5518Z" fill="#0067AC"/>
<path d="M61.5518 61.5518C64.8161 58.2876 64.8161 52.9953 61.5518 49.7311L37.9104 26.0896L14.2689 2.44816C11.0047 -0.81605 5.71236 -0.816052 2.44816 2.44815C-0.816051 5.71236 -0.816051 11.0047 2.44816 14.2689L49.7311 61.5518C52.9953 64.8161 58.2876 64.8161 61.5518 61.5518Z" fill="#0067AC"/>
</svg>
